<?xml version="1.0" encoding="UTF-8"?>
<!DOCTYPE svg PUBLIC "-//W3C//DTD SVG 1.1//EN" "http://www.w3.org/Graphics/SVG/1.1/DTD/svg11.dtd">
<svg xmlns="http://www.w3.org/2000/svg" version="1.1" width="500px" height="500px" style="shape-rendering:geometricPrecision; text-rendering:geometricPrecision; image-rendering:optimizeQuality; fill-rule:evenodd; clip-rule:evenodd" xmlns:xlink="http://www.w3.org/1999/xlink">
<g><path style="opacity:1" fill="#ffaa22" d="M 222.5,177.5 C 223.906,177.027 224.573,176.027 224.5,174.5C 226.027,174.573 227.027,173.906 227.5,172.5C 235.596,167.975 242.763,169.308 249,176.5C 252.526,183.703 252.193,190.703 248,197.5C 238.768,204.623 230.102,203.957 222,195.5C 218.538,189.275 218.705,183.275 222.5,177.5 Z"/></g>
<g><path style="opacity:0.659" fill="#ffdfa6" d="M 227.5,172.5 C 227.027,173.906 226.027,174.573 224.5,174.5C 224.973,173.094 225.973,172.427 227.5,172.5 Z"/></g>
<g><path style="opacity:0.714" fill="#ffdda1" d="M 224.5,174.5 C 224.573,176.027 223.906,177.027 222.5,177.5C 222.427,175.973 223.094,174.973 224.5,174.5 Z"/></g>
<g><path style="opacity:0.618" fill="#ffd282" d="M 88.5,178.5 C 88.5,178.833 88.5,179.167 88.5,179.5C 79.8333,179.5 71.1667,179.5 62.5,179.5C 62.5,217.833 62.5,256.167 62.5,294.5C 63.5,294.5 64.5,294.5 65.5,294.5C 64.4324,295.434 63.099,295.768 61.5,295.5C 61.3333,256.499 61.5,217.499 62,178.5C 70.9316,177.172 79.7649,177.172 88.5,178.5 Z"/></g>
<g><path style="opacity:1" fill="#ffa710" d="M 88.5,179.5 C 88.3334,200.836 88.5,222.169 89,243.5C 89.5133,242.473 90.0133,241.473 90.5,240.5C 91.604,238.611 92.9373,236.945 94.5,235.5C 96.2624,234.738 97.2624,233.404 97.5,231.5C 103.115,223.126 109.115,214.959 115.5,207C 127.833,206.333 140.167,206.333 152.5,207C 140.709,221.793 128.543,236.293 116,250.5C 115.53,251.577 115.697,252.577 116.5,253.5C 116.427,255.027 117.094,256.027 118.5,256.5C 120.167,257.5 121.5,258.833 122.5,260.5C 122.738,262.404 123.738,263.738 125.5,264.5C 127.5,265.833 129.167,267.5 130.5,269.5C 130.427,271.027 131.094,272.027 132.5,272.5C 134.5,273.833 136.167,275.5 137.5,277.5C 137.427,279.027 138.094,280.027 139.5,280.5C 141.5,281.833 143.167,283.5 144.5,285.5C 144.427,287.027 145.094,288.027 146.5,288.5C 148.63,290.127 150.63,291.96 152.5,294C 149.905,294.226 147.405,294.726 145,295.5C 135.53,294.177 126.03,294.177 116.5,295.5C 107.595,284.69 98.9281,273.69 90.5,262.5C 90.2172,261.711 89.7172,261.044 89,260.5C 88.5001,271.828 88.3335,283.162 88.5,294.5C 80.8333,294.5 73.1667,294.5 65.5,294.5C 64.5,294.5 63.5,294.5 62.5,294.5C 62.5,256.167 62.5,217.833 62.5,179.5C 71.1667,179.5 79.8333,179.5 88.5,179.5 Z"/></g>
<g><path style="opacity:0.218" fill="#ffebc8" d="M 88.5,178.5 C 89.1667,199.167 89.8333,219.833 90.5,240.5C 90.0133,241.473 89.5133,242.473 89,243.5C 88.5,222.169 88.3334,200.836 88.5,179.5C 88.5,179.167 88.5,178.833 88.5,178.5 Z"/></g>
<g><path style="opacity:0.858" fill="#ffc155" d="M 295.5,179.5 C 286.833,179.5 278.167,179.5 269.5,179.5C 269.5,217.833 269.5,256.167 269.5,294.5C 270.833,294.5 272.167,294.5 273.5,294.5C 272.081,295.451 270.415,295.784 268.5,295.5C 268.5,256.167 268.5,216.833 268.5,177.5C 277.314,178.018 285.814,178.018 294,177.5C 294.717,178.044 295.217,178.711 295.5,179.5 Z"/></g>
<g><path style="opacity:1" fill="#ffa713" d="M 295.5,179.5 C 295.333,192.171 295.5,204.838 296,217.5C 296.278,216.584 296.778,215.918 297.5,215.5C 299.749,214.92 301.415,213.587 302.5,211.5C 319.84,202.058 335.673,204.392 350,218.5C 364.915,239.581 365.248,260.914 351,282.5C 338.185,295.693 323.352,299.193 306.5,293C 304.907,292.051 303.574,290.885 302.5,289.5C 302.027,288.094 301.027,287.427 299.5,287.5C 298.115,286.426 296.949,285.093 296,283.5C 295.501,287.152 295.335,290.818 295.5,294.5C 288.327,294.715 280.994,294.715 273.5,294.5C 272.167,294.5 270.833,294.5 269.5,294.5C 269.5,256.167 269.5,217.833 269.5,179.5C 278.167,179.5 286.833,179.5 295.5,179.5 Z M 325.5,268.5 C 323.973,268.427 322.973,269.094 322.5,270.5C 302.255,272.752 293.755,263.752 297,243.5C 301.2,232.648 309.034,228.482 320.5,231C 329.094,234.847 333.428,241.513 333.5,251C 333.226,258.011 330.56,263.845 325.5,268.5 Z"/></g>
<g><path style="opacity:1" fill="#ffa817" d="M 211.5,233.5 C 206.27,234.156 200.936,234.989 195.5,236C 192.667,237.5 190.5,239.667 189,242.5C 187.542,259.764 187.042,277.097 187.5,294.5C 178.143,294.35 168.809,294.683 159.5,295.5C 159.5,266.167 159.5,236.833 159.5,207.5C 168.5,207.5 177.5,207.5 186.5,207.5C 186.334,212.511 186.501,217.511 187,222.5C 187.717,221.956 188.217,221.289 188.5,220.5C 189.433,217.63 191.1,215.296 193.5,213.5C 195.404,213.262 196.738,212.262 197.5,210.5C 199.027,210.573 200.027,209.906 200.5,208.5C 201.209,207.596 202.209,207.263 203.5,207.5C 206.167,207.167 208.833,206.833 211.5,206.5C 211.5,215.5 211.5,224.5 211.5,233.5 Z"/></g>
<g><path style="opacity:0.208" fill="#ffebc6" d="M 211.5,233.5 C 211.5,224.5 211.5,215.5 211.5,206.5C 208.833,206.833 206.167,207.167 203.5,207.5C 206.171,205.882 209.171,205.215 212.5,205.5C 212.827,215.015 212.494,224.348 211.5,233.5 Z"/></g>
<g><path style="opacity:1" fill="#ffa81a" d="M 436.5,218.5 C 436.427,220.027 437.094,221.027 438.5,221.5C 441.416,225.255 442.75,229.588 442.5,234.5C 433.167,234.5 423.833,234.5 414.5,234.5C 413.026,229.337 409.526,227.337 404,228.5C 399.341,227.596 395.841,229.096 393.5,233C 394.252,233.671 394.586,234.504 394.5,235.5C 394.5,237.5 395.5,238.5 397.5,238.5C 398.609,238.557 399.609,238.89 400.5,239.5C 402.78,241.223 405.447,241.889 408.5,241.5C 410.565,241.517 412.565,241.85 414.5,242.5C 416.102,244.074 418.102,244.741 420.5,244.5C 436.595,247.234 443.928,256.567 442.5,272.5C 441.596,273.209 441.263,274.209 441.5,275.5C 438.781,284.054 433.114,289.888 424.5,293C 413.96,296.471 403.627,296.971 393.5,294.5C 391.485,293.076 389.152,292.41 386.5,292.5C 376.608,289.278 370.608,282.611 368.5,272.5C 368.5,270.833 368.5,269.167 368.5,267.5C 377.584,267.196 386.584,267.529 395.5,268.5C 396.646,270.475 398.313,271.975 400.5,273C 404.167,273.667 407.833,273.667 411.5,273C 416.835,270.377 417.501,267.044 413.5,263C 409.24,261.191 404.906,259.691 400.5,258.5C 398.095,257.232 395.428,256.565 392.5,256.5C 383.991,255.995 376.825,252.662 371,246.5C 369.589,244.35 368.755,242.016 368.5,239.5C 368.5,235.5 368.5,231.5 368.5,227.5C 369.918,219.753 374.252,214.419 381.5,211.5C 383.027,211.573 384.027,210.906 384.5,209.5C 385.708,208.766 387.041,208.433 388.5,208.5C 391.152,208.59 393.485,207.924 395.5,206.5C 408.245,204.236 420.245,206.403 431.5,213C 433.373,214.704 435.04,216.537 436.5,218.5 Z"/></g>
<g><path style="opacity:0.212" fill="#ffebc7" d="M 159.5,207.5 C 168.652,206.506 177.985,206.173 187.5,206.5C 187.181,211.363 187.514,216.03 188.5,220.5C 188.217,221.289 187.717,221.956 187,222.5C 186.501,217.511 186.334,212.511 186.5,207.5C 177.5,207.5 168.5,207.5 159.5,207.5 Z"/></g>
<g><path style="opacity:0.035" fill="#fff8ec" d="M 249.5,207.5 C 240.5,207.5 231.5,207.5 222.5,207.5C 222.5,236.5 222.5,265.5 222.5,294.5C 221.502,265.338 221.169,236.005 221.5,206.5C 231.015,206.173 240.348,206.506 249.5,207.5 Z"/></g>
<g><path style="opacity:1" fill="#ffa608" d="M 249.5,207.5 C 249.804,208.15 250.137,208.817 250.5,209.5C 249.675,237.791 249.175,266.124 249,294.5C 240.182,294.656 231.348,294.656 222.5,294.5C 222.5,265.5 222.5,236.5 222.5,207.5C 231.5,207.5 240.5,207.5 249.5,207.5 Z"/></g>
<g><path style="opacity:0.949" fill="#ffd081" d="M 395.5,206.5 C 393.485,207.924 391.152,208.59 388.5,208.5C 390.438,206.837 392.772,206.171 395.5,206.5 Z"/></g>
<g><path style="opacity:0.745" fill="#ffd895" d="M 200.5,208.5 C 200.027,209.906 199.027,210.573 197.5,210.5C 197.973,209.094 198.973,208.427 200.5,208.5 Z"/></g>
<g><path style="opacity:0.784" fill="#ffd894" d="M 384.5,209.5 C 384.027,210.906 383.027,211.573 381.5,211.5C 381.973,210.094 382.973,209.427 384.5,209.5 Z"/></g>
<g><path style="opacity:0.663" fill="#ffd896" d="M 197.5,210.5 C 196.738,212.262 195.404,213.262 193.5,213.5C 194.262,211.738 195.596,210.738 197.5,210.5 Z"/></g>
<g><path style="opacity:0.812" fill="#ffcf7f" d="M 302.5,211.5 C 301.415,213.587 299.749,214.92 297.5,215.5C 298.585,213.413 300.251,212.08 302.5,211.5 Z"/></g>
<g><path style="opacity:0.573" fill="#ffd690" d="M 436.5,218.5 C 437.906,218.973 438.573,219.973 438.5,221.5C 437.094,221.027 436.427,220.027 436.5,218.5 Z"/></g>
<g><path style="opacity:0.839" fill="#ffd692" d="M 97.5,231.5 C 97.2624,233.404 96.2624,234.738 94.5,235.5C 94.7376,233.596 95.7376,232.262 97.5,231.5 Z"/></g>
<g><path style="opacity:0.79" fill="#ffd68e" d="M 368.5,227.5 C 368.5,231.5 368.5,235.5 368.5,239.5C 365.833,235.5 365.833,231.5 368.5,227.5 Z"/></g>
<g><path style="opacity:0.551" fill="#ffd485" d="M 414.5,234.5 C 423.833,234.5 433.167,234.5 442.5,234.5C 434.098,235.18 425.598,235.846 417,236.5C 416.005,235.934 415.172,235.267 414.5,234.5 Z"/></g>
<g><path style="opacity:0.443" fill="#ffeac4" d="M 394.5,235.5 C 395.833,236.167 396.833,237.167 397.5,238.5C 395.5,238.5 394.5,237.5 394.5,235.5 Z"/></g>
<g><path style="opacity:0.004" fill="#fff1da" d="M 400.5,239.5 C 403.373,239.802 406.039,240.469 408.5,241.5C 405.447,241.889 402.78,241.223 400.5,239.5 Z"/></g>
<g><path style="opacity:0.412" fill="#ffe9c1" d="M 414.5,242.5 C 416.786,242.595 418.786,243.262 420.5,244.5C 418.102,244.741 416.102,244.074 414.5,242.5 Z"/></g>
<g><path style="opacity:0.631" fill="#ffdfa8" d="M 116.5,253.5 C 117.906,253.973 118.573,254.973 118.5,256.5C 117.094,256.027 116.427,255.027 116.5,253.5 Z"/></g>
<g><path style="opacity:0.855" fill="#ffd388" d="M 392.5,256.5 C 395.428,256.565 398.095,257.232 400.5,258.5C 397.505,258.706 394.838,258.04 392.5,256.5 Z"/></g>
<g><path style="opacity:0.218" fill="#ffecc9" d="M 90.5,262.5 C 89.8333,273.167 89.1667,283.833 88.5,294.5C 88.3335,283.162 88.5001,271.828 89,260.5C 89.7172,261.044 90.2172,261.711 90.5,262.5 Z"/></g>
<g><path style="opacity:0.729" fill="#ffdda1" d="M 122.5,260.5 C 124.262,261.262 125.262,262.596 125.5,264.5C 123.738,263.738 122.738,262.404 122.5,260.5 Z"/></g>
<g><path style="opacity:0.753" fill="#ffd58b" d="M 395.5,268.5 C 386.584,267.529 377.584,267.196 368.5,267.5C 368.5,269.167 368.5,270.833 368.5,272.5C 367.532,270.393 367.198,268.059 367.5,265.5C 375.507,265.334 383.507,265.5 391.5,266C 393.437,266.122 394.77,266.955 395.5,268.5 Z"/></g>
<g><path style="opacity:0.733" fill="#ffd995" d="M 325.5,268.5 C 325.027,269.906 324.027,270.573 322.5,270.5C 322.973,269.094 323.973,268.427 325.5,268.5 Z"/></g>
<g><path style="opacity:0.655" fill="#ffdea6" d="M 130.5,269.5 C 131.906,269.973 132.573,270.973 132.5,272.5C 131.094,272.027 130.427,271.027 130.5,269.5 Z"/></g>
<g><path style="opacity:0.467" fill="#ffe1ab" d="M 442.5,272.5 C 442.938,272.435 443.272,272.601 443.5,273C 442.934,273.995 442.267,274.828 441.5,275.5C 441.263,274.209 441.596,273.209 442.5,272.5 Z"/></g>
<g><path style="opacity:0.663" fill="#ffdea5" d="M 137.5,277.5 C 138.906,277.973 139.573,278.973 139.5,280.5C 138.094,280.027 137.427,279.027 137.5,277.5 Z"/></g>
<g><path style="opacity:0.655" fill="#ffdea4" d="M 144.5,285.5 C 145.906,285.973 146.573,286.973 146.5,288.5C 145.094,288.027 144.427,287.027 144.5,285.5 Z"/></g>
<g><path style="opacity:0.761" fill="#ffd896" d="M 299.5,287.5 C 301.027,287.427 302.027,288.094 302.5,289.5C 300.973,289.573 299.973,288.906 299.5,287.5 Z"/></g>
<g><path style="opacity:0.945" fill="#ffcd7b" d="M 386.5,292.5 C 389.152,292.41 391.485,293.076 393.5,294.5C 390.848,294.59 388.515,293.924 386.5,292.5 Z"/></g>
</svg>
